<?xml version="1.0" encoding="UTF-8" standalone="no"?>
<!DOCTYPE svg PUBLIC "-//W3C//DTD SVG 1.1//EN" "http://www.w3.org/Graphics/SVG/1.1/DTD/svg11.dtd">
<svg version="1.1" xmlns="http://www.w3.org/2000/svg" xmlns:xlink="http://www.w3.org/1999/xlink" preserveAspectRatio="xMidYMid meet" viewBox="-1 -1 72.27563706740807 58.0000005566213" width="68.28" height="54"><defs><path d="M32.13 0.49L33.36 0.76L34.57 1.08L35.76 1.46L36.93 1.89L38.07 2.38L39.18 2.91L40.26 3.49L41.31 4.11L42.34 4.79L43.33 5.51L44.28 6.27L45.2 7.07L46.09 7.91L46.93 8.8L47.73 9.72L48.49 10.67L49.21 11.66L49.76 12.5L68.28 12.5L68.28 41.51L49.76 41.51L49.21 42.35L48.49 43.34L47.73 44.29L46.93 45.21L46.09 46.1L45.2 46.93L44.28 47.74L43.33 48.5L42.34 49.22L41.31 49.89L40.26 50.51L39.18 51.1L38.07 51.63L36.93 52.11L35.76 52.55L34.57 52.92L33.36 53.24L32.13 53.52L30.87 53.73L29.59 53.88L28.31 53.97L27 54L25.68 53.97L24.4 53.88L23.12 53.73L21.87 53.52L20.63 53.24L19.42 52.92L18.23 52.55L17.06 52.11L15.93 51.63L14.82 51.1L13.73 50.51L12.68 49.89L11.65 49.22L10.66 48.5L9.71 47.74L8.79 46.93L7.9 46.1L7.07 45.21L6.26 44.29L5.5 43.34L4.78 42.35L4.1 41.32L3.48 40.27L2.9 39.18L2.37 38.07L1.89 36.94L1.45 35.77L1.07 34.58L0.75 33.36L0.48 32.13L0.27 30.88L0.12 29.6L0.03 28.32L0 27L0.03 25.69L0.12 24.41L0.27 23.13L0.48 21.87L0.75 20.64L1.07 19.43L1.45 18.23L1.89 17.07L2.37 15.93L2.9 14.82L3.48 13.74L4.1 12.69L4.78 11.66L5.5 10.67L6.26 9.72L7.07 8.8L7.9 7.91L8.79 7.07L9.71 6.27L10.66 5.51L11.65 4.79L12.68 4.11L13.73 3.49L14.82 2.91L15.93 2.38L17.06 1.89L18.23 1.46L19.42 1.08L20.63 0.76L21.87 0.49L23.12 0.27L24.4 0.13L25.68 0.04L27 0L28.31 0.04L29.59 0.13L30.87 0.27L30.87 0.27L32.13 0.49Z" id="k3Zlx4PNhy"></path><linearGradient id="gradientd5q4PQeNm" gradientUnits="userSpaceOnUse" x1="34.14" y1="0" x2="34.14" y2="54"><stop style="stop-color: #ffe700;stop-opacity: 1" offset="0%"></stop><stop style="stop-color: #010000;stop-opacity: 1" offset="100%"></stop></linearGradient></defs><g><g><use xlink:href="#k3Zlx4PNhy" opacity="1" fill="url(#gradientd5q4PQeNm)"></use><g><use xlink:href="#k3Zlx4PNhy" opacity="1" fill-opacity="0" stroke="#000000" stroke-width="1" stroke-opacity="0"></use></g></g></g></svg>